<?xml version="1.0" encoding="UTF-8" standalone="no"?>
<svg
   width="100%"
   height="100%"
   viewBox="0 0 1200 800"
   version="1.1"
   xml:space="preserve"
   style="fill-rule:evenodd;clip-rule:evenodd;stroke-linejoin:round;stroke-miterlimit:1.41421;"
   id="svg78"
   sodipodi:docname="rustacean.svg"
   inkscape:version="1.1.1 (3bf5ae0d25, 2021-09-20, custom)"
   xmlns:inkscape="http://www.inkscape.org/namespaces/inkscape"
   xmlns:sodipodi="http://sodipodi.sourceforge.net/DTD/sodipodi-0.dtd"
   xmlns="http://www.w3.org/2000/svg"
   xmlns:svg="http://www.w3.org/2000/svg"><sodipodi:namedview
   id="namedview80"
   pagecolor="#ffffff"
   bordercolor="#cccccc"
   borderopacity="1"
   inkscape:pageshadow="0"
   inkscape:pageopacity="1"
   inkscape:pagecheckerboard="0"
   showgrid="false"
   inkscape:zoom="1.2710244"
   inkscape:cx="1112.0951"
   inkscape:cy="219.11459"
   inkscape:window-width="3810"
   inkscape:window-height="2106"
   inkscape:window-x="12"
   inkscape:window-y="36"
   inkscape:window-maximized="1"
   inkscape:current-layer="svg78" />
    <path
   id="path2"
   style="fill:#a52b00;fill-rule:nonzero"
   d="M 595.01172 40.683594 C 589.68047 40.392055 584.67842 43.860238 582.06445 48.636719 L 554.28906 95.029297 L 540.75 96.214844 L 504.65234 56.167969 C 501.24866 51.917966 495.78558 50.121109 490.58594 51.333984 C 485.3863 52.546859 481.20357 56.703398 479.3418 61.414062 L 461.11914 113.03516 C 456.67171 114.18223 452.22317 115.32865 448.59375 117.16211 L 405.56836 84.542969 C 401.54408 81.86319 395.39529 80.885884 391.01367 82.785156 C 385.94565 85.502445 382.5125 89.593166 381.46875 94.990234 L 372.60156 149.58203 C 368.97214 151.41549 365.40897 154.00112 361.02734 155.90039 L 313.5918 133.52148 C 308.81532 130.90751 302.79689 131.4342 298.54688 134.83789 C 294.23107 137.48936 291.68412 143.0164 291.39258 148.34766 L 293.1875 203.52344 C 290.3761 206.0433 286.87806 209.38113 283.31445 211.9668 L 232.2207 199.76172 C 226.75783 197.96577 221.62365 199.93005 217.43945 204.08594 C 213.94166 207.42382 212.2129 213.63825 213.42578 218.83789 L 225.68555 272.33984 C 222.93996 275.61191 220.19541 278.88393 217.51562 282.9082 L 164.26758 280.74414 C 158.93632 280.4526 153.86788 283.17079 151.25391 287.94727 C 148.63994 292.72375 147.66357 298.87339 150.38086 303.94141 L 172.15625 353.57812 C 169.47647 357.6024 167.54866 361.55911 165.62109 365.51758 L 114.11328 374.57227 C 108.09562 375.09875 103.91254 379.25417 102.05078 383.96484 C 100.25482 389.42772 100.78016 395.4459 103.43164 399.76172 L 134.5918 444.0293 C 133.90541 444.84732 133.9713 445.59936 134.03711 446.35156 L 46.628906 538.89062 C 46.628906 538.89062 33.878575 549.10299 52.730469 573.98242 C 69.7489 595.23244 157.5773 680.77822 203.97852 725.98633 C 223.38519 748.54333 236.73718 762.53422 238.17578 761.65039 C 240.23497 759.19634 229.0275 717.72966 190.70312 669.54102 C 161.1137 625.89393 122.64978 558.76856 131.08398 551.20898 C 131.08398 551.20898 135.48019 546.12247 143.44141 540.10547 C 144.44157 543.73707 146.2805 548.04385 149.5293 553.09375 C 160.1193 569.54875 213.16316 633.96041 241.16016 667.69141 C 253.18616 684.98441 261.34069 695.63642 262.05469 694.60742 C 263.17869 692.97442 254.57831 660.5078 230.69531 623.4668 C 219.55131 603.5718 206.24191 577.21509 198.25391 557.74609 C 212.05312 566.47988 228.76485 574.63656 247.5 582.25391 C 320.05568 685.90157 371.32814 687.66797 371.32812 687.66797 C 507.57011 862.39232 572.10547 722.08594 572.10547 722.08594 C 495.61875 713.48119 441.36133 662.57031 441.36133 662.57031 C 533.14539 650.85827 586.20703 649.90234 586.20703 649.90234 C 577.5871 638.53208 569.09572 628.83091 560.73047 620.34375 C 556.03848 615.58338 551.39968 611.29195 546.80078 607.36133 C 546.41524 607.03133 546.02937 606.69743 545.64453 606.37305 C 536.26388 598.47802 527.08372 592.16201 518.1543 587.35938 C 518.08745 587.3233 518.0219 587.29568 517.95508 587.25977 C 513.8031 585.03566 509.71543 583.16014 505.67383 581.5293 C 504.94524 581.23395 504.22092 580.95079 503.49609 580.67383 C 499.82566 579.27801 496.20174 578.08725 492.63086 577.14062 C 492.14276 577.0104 491.64632 576.84097 491.16016 576.71875 C 487.13319 575.71325 483.16925 574.95634 479.2793 574.4707 C 478.74149 574.40276 478.22258 574.39254 477.6875 574.33398 C 474.51113 573.99094 471.38449 573.80742 468.30664 573.77734 C 467.82408 573.77207 467.316 573.68742 466.83594 573.68945 C 466.35441 573.69149 465.91258 573.79738 465.43359 573.80664 C 460.92219 573.89853 456.50128 574.23676 452.22266 574.91602 C 451.55597 575.02135 450.91859 575.17857 450.25781 575.29688 C 446.29408 576.0091 442.43428 576.93189 438.68945 578.06445 C 438.10395 578.24133 437.49986 578.37641 436.91992 578.5625 C 433.04734 579.80601 429.33612 581.29397 425.71875 582.89648 C 424.83022 583.29028 423.94475 583.66983 423.07227 584.08203 C 419.61741 585.71285 416.29204 587.46981 413.0957 589.33789 C 412.30565 589.80026 411.54903 590.27033 410.77539 590.74414 C 407.53122 592.72765 404.38956 594.77566 401.44141 596.9043 C 401.17859 597.09445 400.94202 597.28761 400.68164 597.47852 C 397.615 599.72215 394.72968 602.00948 392.00781 604.30273 C 391.80584 604.47331 391.59454 604.64002 391.39453 604.81055 C 389.82611 606.14453 388.50129 607.42771 387.05469 608.74805 C 385.48555 610.18354 383.89291 611.60467 382.47266 612.99805 C 380.71665 614.71605 379.2071 616.28771 377.68359 617.89844 C 377.257 618.35026 376.72616 618.85411 376.31836 619.29492 C 376.33158 619.29719 376.34615 619.29852 376.35938 619.30078 C 368.29068 628.01384 363.67773 634.60547 363.67773 634.60547 C 352.88145 630.66068 341.9793 621.73578 331.51953 610.45312 C 344.52429 613.30108 357.8407 616.02735 371.76172 618.47852 C 379.38646 608.13543 417.323 560.02275 472.45117 560.46094 C 506.35868 560.73045 546.67972 579.4789 590.25 636.91406 C 592.63498 636.92538 594.95 637.01953 597.34375 637.01953 C 602.59407 637.01953 607.66576 636.80813 612.87305 636.75391 C 656.4162 577.08793 695.92008 557.54724 728.82031 557.17188 C 783.73883 556.54521 820.25883 609.29133 826.45508 617.83008 L 826.45508 617.88477 C 844.13822 614.70685 860.85074 611.09709 876.94727 607.25781 C 869.67218 612.8667 862.03025 618.51386 853.55469 624.21094 L 826.56641 630.625 C 826.56641 630.625 823.86015 625.84843 819.08398 619.10742 C 819.08839 619.10666 819.09325 619.10623 819.09766 619.10547 C 819.03818 619.02139 818.95082 618.9129 818.89062 618.82812 C 817.79932 617.29478 816.56421 615.69216 815.24609 613.9707 C 814.27377 612.69499 813.32202 611.46782 812.22656 610.11328 C 811.1613 608.80111 810.02559 607.49856 808.84766 606.13477 C 807.27866 604.30959 805.6646 602.51321 803.89648 600.63672 C 801.91717 598.54349 799.93178 596.46488 797.71289 594.375 C 797.03176 593.73132 796.31298 593.11576 795.60938 592.47656 C 793.2485 590.33785 790.76757 588.23967 788.16211 586.20117 C 787.20232 585.44873 786.24858 584.7201 785.25586 583.98828 C 782.48664 581.94954 779.57708 580.02386 776.56055 578.20117 C 775.71376 577.68944 774.91104 577.15069 774.04492 576.66016 C 770.62956 574.72486 767.02523 573.02849 763.32031 571.49219 C 762.24444 571.04703 761.20353 570.5617 760.10352 570.15625 C 759.74728 570.02454 759.3802 569.91446 759.02148 569.78711 C 757.01465 569.07696 754.97912 568.42564 752.89453 567.86133 C 752.2142 567.67628 751.51845 567.52772 750.83008 567.35938 C 749.03328 566.92227 747.22093 566.52554 745.36914 566.20898 C 744.43677 566.0484 743.48888 565.93076 742.54297 565.80273 C 740.88323 565.58007 739.21133 565.39465 737.50977 565.27734 C 736.39181 565.19912 735.26047 565.16485 734.125 565.13477 C 733.22752 565.11174 732.35772 565.01347 731.44922 565.02148 C 730.94019 565.02597 730.39718 565.13585 729.88477 565.15039 C 727.15071 565.22588 724.36573 565.46528 721.53711 565.8418 C 720.80805 565.93953 720.10048 565.97099 719.36523 566.08984 C 715.73237 566.67342 712.02241 567.53924 708.24219 568.66992 C 707.53965 568.88083 706.81886 569.17142 706.11133 569.40234 C 694.18974 573.27967 681.58304 579.96709 668.33789 590.39648 C 668.08376 590.59684 667.82295 590.83599 667.56836 591.03906 C 663.52932 594.25692 659.42656 597.88484 655.27539 601.8125 C 654.41983 602.62262 653.56138 603.4613 652.70117 604.30273 C 648.73048 608.18399 644.71357 612.39134 640.64648 616.96484 C 640.11738 617.56005 639.5971 618.09779 639.06641 618.70508 C 634.29129 624.16747 629.46091 630.07504 624.56055 636.55273 C 621.11166 641.11176 617.64096 645.84256 614.13281 650.93164 C 614.13281 650.93164 652.87914 628.48704 756.82422 656.00977 C 756.82422 656.00977 708.99281 729.2252 612.79688 726.82031 C 612.79688 726.82031 704.98608 837.7137 845.53906 677.6543 C 845.53906 677.6543 935.44298 642.86324 981.0332 569.41602 C 999.48001 560.31502 1014.8748 550.51417 1026.7285 540.16016 C 1022.0765 558.86716 1006.1645 596.71317 993.47852 623.32812 C 972.62852 661.39414 965.07885 694.53087 966.04688 696.17188 C 966.66386 697.20488 973.77663 686.23217 984.26562 668.45117 C 1008.6756 633.67017 1054.9308 567.26947 1064.1758 550.35547 C 1065.6353 547.68307 1066.7489 545.23066 1067.6328 542.95508 C 1072.4303 545.86585 1075.2422 548.19336 1075.2422 548.19336 C 1084.861 554.17351 1059.8123 623.06491 1039.5586 668.79883 C 1011.4913 720.5221 1007.4575 761.04654 1009.8457 762.35352 C 1011.4159 762.97411 1021.4486 747.69592 1035.957 722.92969 C 1071.8096 673.55715 1138.5794 579.03313 1150.9629 555.96875 C 1165.3397 529.6981 1151.0098 521.85742 1151.0098 521.85742 L 1057.8594 453.45117 C 1056.844 450.50815 1055.827 447.56572 1055.498 443.80469 L 1085.7285 399.47266 C 1089.1605 395.38257 1089.387 389.29789 1087.4219 384.16406 C 1085.4568 379.03023 1081.3657 375.59843 1075.9688 374.55469 L 1023.6348 365.49023 C 1021.8013 361.86081 1019.9019 357.47902 1018.0684 353.84961 L 1039.4316 303.4707 C 1042.0456 298.69422 1041.5183 292.67604 1038.0488 287.67383 C 1035.3973 283.35802 1030.621 280.74441 1025.3555 281.20508 L 972.4375 282.80273 C 969.85183 279.23912 966.5134 275.74134 963.92773 272.17773 L 975.93555 218.82812 C 976.9793 213.43105 975.70116 207.48022 972.36328 203.98242 C 968.20739 199.79823 962.74456 198.00197 957.54492 199.21484 L 906.36719 212.0293 C 903.09513 209.28371 899.82226 206.53882 896.48438 203.04102 L 897.76367 148.35547 C 898.05521 143.02421 895.33813 137.95542 891.24805 134.52344 C 886.40576 131.15726 881.07388 130.86669 876.00586 133.58398 L 828.69336 155.91406 C 824.73489 153.98648 820.71042 151.30649 816.75195 149.37891 L 808.25195 95.548828 C 807.72547 89.531172 803.57004 85.348091 798.85938 83.486328 C 794.0829 80.872358 788.06445 81.399048 783.81445 84.802734 L 741.11719 116.58203 C 737.22453 115.40666 733.33236 114.23065 728.6875 113.12109 L 710.54102 61.652344 C 708.57594 56.518514 704.42051 52.334763 699.02344 51.291016 C 693.62637 50.24727 688.49278 52.211292 684.30859 56.367188 L 648.41797 96.648438 C 644.59112 96.225279 639.94624 95.115161 635.36719 94.757812 L 607.83789 48.65625 C 605.1206 43.588231 600.34298 40.975133 595.01172 40.683594 z M 721.28516 396.40039 C 734.46741 396.06473 749.41623 401.17922 764.36523 417.54688 C 764.36523 417.54688 798.53523 481.03925 764.36523 512.78125 C 764.36523 512.78125 708.45458 557.22525 677.39258 512.78125 C 677.39258 512.78125 640.11758 477.85987 677.39258 417.54688 C 677.39258 417.54688 696.11903 397.04121 721.28516 396.40039 z M 519.20312 397.16992 C 541.31691 397.03633 567.43961 406.07311 578.25586 445.23633 C 578.25586 445.23633 599.58209 531.16172 516.99609 536.01172 C 516.99609 536.01172 424.11253 518.11358 472.15039 423.82227 C 473.94285 417.52027 477.03726 412.12063 480.98047 408.24414 C 481.7405 407.01831 482.49652 405.79359 483.30078 404.54492 C 483.30078 404.54492 499.69098 397.2878 519.20312 397.16992 z " />
    <defs
   id="defs76">
        <linearGradient
   id="_Linear1"
   x1="0"
   y1="0"
   x2="1"
   y2="0"
   gradientUnits="userSpaceOnUse"
   gradientTransform="matrix(-65.8097,-752.207,752.207,-65.8097,622.19632,796.26919)"><stop
     offset="0"
     style="stop-color:rgb(247,76,0);stop-opacity:1"
     id="stop51" /><stop
     offset="0.33"
     style="stop-color:rgb(247,76,0);stop-opacity:1"
     id="stop53" /><stop
     offset="1"
     style="stop-color:rgb(244,150,0);stop-opacity:1"
     id="stop55" /></linearGradient>
        <linearGradient
   id="_Linear2"
   x1="0"
   y1="0"
   x2="1"
   y2="0"
   gradientUnits="userSpaceOnUse"
   gradientTransform="matrix(-1.53e-5,-267.211,267.211,-1.53e-5,809.46467,764.23)"><stop
     offset="0"
     style="stop-color:rgb(204,58,0);stop-opacity:1"
     id="stop58" /><stop
     offset="0.15"
     style="stop-color:rgb(204,58,0);stop-opacity:1"
     id="stop60" /><stop
     offset="0.74"
     style="stop-color:rgb(247,76,0);stop-opacity:1"
     id="stop62" /><stop
     offset="1"
     style="stop-color:rgb(247,76,0);stop-opacity:1"
     id="stop64" /></linearGradient>
        <linearGradient
   id="_Linear3"
   x1="0"
   y1="0"
   x2="1"
   y2="0"
   gradientUnits="userSpaceOnUse"
   gradientTransform="matrix(-1.53e-5,-239.021,239.021,-1.53e-5,402.161,775.388)"><stop
     offset="0"
     style="stop-color:rgb(204,58,0);stop-opacity:1"
     id="stop67" /><stop
     offset="0.15"
     style="stop-color:rgb(204,58,0);stop-opacity:1"
     id="stop69" /><stop
     offset="0.74"
     style="stop-color:rgb(247,76,0);stop-opacity:1"
     id="stop71" /><stop
     offset="1"
     style="stop-color:rgb(247,76,0);stop-opacity:1"
     id="stop73" /></linearGradient>
    
        
        
        
        
        
        
        
        
        
        
        
        
    
            
        
            
        
            
        
            
        
            
        
            
        
            
        
            
        
            
        
            
        
            
        
            
        </defs>
</svg>
